<svg xmlns="http://www.w3.org/2000/svg" width="192" height="44" viewBox="0 0 192 44" fill="none"><path d="M114.805 21.9998C114.805 34.1497 104.955 43.9997 92.8048 43.9997C80.6549 43.9997 70.8049 34.1497 70.8049 21.9998C70.8049 9.84995 80.65 0 92.7999 0C104.95 0 114.8 9.84995 114.8 21.9998H114.805Z" fill="#FFCC00"/><path d="M103.693 22.0678C100.399 27.0898 97.6279 32.6019 92.7224 36.2945C91.291 37.3716 88.3845 38.0315 87.4286 35.916C84.9298 30.3651 81.8535 25.1296 78.5588 20.0153C76.1861 16.3325 83.0859 10.4177 85.7643 14.5712C89.059 19.6805 92.1304 24.9209 94.6341 30.4718C92.8679 30.3457 91.1066 30.2195 89.3404 30.0885C93.4599 26.9879 95.5658 21.568 98.5353 17.4728C102.364 12.1888 104.033 9.52976 107.73 4.15353C108.909 2.4407 110.991 0.62113 113.257 1.49453C115.29 2.28058 115.431 5.08515 114.329 6.69122L103.693 22.0678Z" fill="#CC071E"/><path d="M5.16758 34.8198C2.72693 34.8198 1.12086 34.3879 0 33.6407L1.06263 30.3994C1.69342 30.8313 2.8725 31.3165 4.25052 31.3165C5.88571 31.3165 6.89011 30.3703 6.89011 28.9632C6.89011 27.7016 6.14288 26.9252 4.13407 26.0373C1.06263 24.6593 0.19894 22.5049 0.19894 20.5834C0.19894 17.25 2.61048 14.4988 6.45827 14.4988C8.58353 14.4988 10.1314 15.018 11.0776 15.6487L10.1023 18.4921C9.41325 18.0603 8.35062 17.6333 7.14728 17.6333C5.59943 17.6333 4.76485 18.4921 4.76485 19.8993C4.76485 21.3064 5.76926 22.0536 7.43356 22.8009C11.2522 24.5234 11.7957 26.6196 11.7957 28.6284C11.7957 32.185 9.06875 34.8295 5.16273 34.8295L5.16758 34.8198Z" fill="white"/><path d="M12.0286 40.9919V38.0369C13.6929 37.4935 14.5857 36.46 14.5857 33.3594V19.0649H19.0642V32.816C19.0642 37.838 16.0801 40.8221 12.0334 40.9968L12.0286 40.9919ZM16.8225 16.7067C15.5027 16.7067 14.4401 15.7896 14.4401 14.6106C14.4401 13.4315 15.5027 12.5144 16.8225 12.5144C18.1423 12.5144 19.205 13.4606 19.205 14.6397C19.205 15.8187 18.1423 16.7067 16.8225 16.7067Z" fill="white"/><path d="M25.7603 28.3616C26.0757 30.6276 27.2208 31.7485 29.4916 31.7485C31.3015 31.7485 32.6795 31.3457 33.5092 30.9188L34.5136 33.7039C33.3054 34.3056 31.5878 34.8248 28.9724 34.8248C24.2367 34.8248 21.5098 31.6951 21.5098 26.7604C21.5098 21.8257 24.0378 18.7786 28.4872 18.7786C32.9367 18.7786 35.2318 21.8209 35.0328 27.0467L25.7603 28.3665V28.3616ZM28.3174 21.4133C26.4784 21.4133 25.3333 22.9903 25.474 26.1782L30.8696 25.3727C30.8696 22.6166 29.9526 21.4085 28.3174 21.4085V21.4133Z" fill="white"/><path d="M46.4403 34.5336L41.9908 26.7264H41.9326V34.5336H37.4832V12H41.9326V25.8967H41.9908L46.3238 19.0648H50.8024L45.9502 26.0131L51.4623 34.5384H46.4403V34.5336Z" fill="white"/><path d="M61.6617 34.5336L57.2123 26.7264H57.154V34.5336H52.7046V12H57.154V25.8967H57.2123L61.5453 19.0648H66.0239L61.1717 26.0131L66.6838 34.5384H61.6617V34.5336Z" fill="white"/><path d="M126.01 27.1535L125.379 27.0953V34.5288H120.813V15.6441C122.221 14.9551 124.312 14.4941 126.816 14.4941C132.299 14.4941 134.424 17.2793 134.424 20.8068C134.424 24.5091 131.954 27.697 126.01 27.1535ZM126.787 17.1337C126.156 17.1337 125.637 17.2502 125.379 17.3618V24.4266L126.01 24.4557C128.941 24.6013 129.999 23.364 129.999 20.7826C129.999 18.2012 129.135 17.1386 126.782 17.1386L126.787 17.1337Z" fill="white"/><path d="M143.095 34.8198C138.733 34.8198 136.607 33.1846 136.607 29.4532V19.0647H141.086V29.7735C141.086 30.8943 141.688 31.8114 143.211 31.8114C144.017 31.8114 144.589 31.695 145.079 31.4378V19.0647H149.558V33.6164C148.122 34.3345 145.996 34.8198 143.1 34.8198H143.095Z" fill="white"/><path d="M161.13 34.5336V23.7132C161.13 22.6215 160.645 21.5588 158.835 21.5588C157.947 21.5588 157.457 21.7044 156.943 21.8742V34.5336H152.464V19.9237C154.012 19.2346 156.196 18.7737 158.952 18.7737C163.862 18.7737 165.609 20.8698 165.609 23.6841V34.5336H161.13Z" fill="white"/><path d="M177.56 34.5336L173.11 26.7264H173.052V34.5336H168.603V12H173.052V25.8967H173.11L177.443 19.0648H181.922L177.075 26.0131L182.587 34.5384H177.565L177.56 34.5336Z" fill="white"/><path d="M189.787 34.7617C186.541 34.7617 185.139 32.6656 185.139 30.2831V21.9568H183.446V19.06H185.139V15.7557L189.618 14.6057V19.0552H192V21.9519H189.618V29.9338C189.618 31.1129 190.049 31.7437 191.054 31.7437C191.427 31.7437 191.626 31.6854 192 31.5738V34.3299C191.626 34.4997 190.821 34.7617 189.787 34.7617Z" fill="white"/></svg>