<svg xmlns="http://www.w3.org/2000/svg" width="1087" height="193" viewBox="0 0 1087 193" fill="none"><g clip-path="url(#clip0_39_110)"><path d="M630.58 96.37C630.58 149.21 587.74 192.05 534.9 192.05C482.06 192.05 439.22 149.21 439.22 96.37C439.22 43.53 482.04 0.700012 534.88 0.700012C587.72 0.700012 630.56 43.54 630.56 96.38H630.58V96.37Z" fill="#FFCC00"/><path d="M631.86 11.46L551 147.4C549.63 149.43 547.35 150.65 544.9 150.65H527.58C525.15 150.65 522.87 149.45 521.5 147.44L475.91 82.4C472.59 77.52 476.08 70.91 481.99 70.91H504.44C506.93 70.91 509.24 72.17 510.6 74.25L536.71 112.42L599.15 3.26C600.521 1.22 602.81 0 605.26 0H625.76C631.65 0 635.15 6.58 631.86 11.46Z" fill="#CC071E"/><path d="M0.000234375 134.8L16.5902 114.17C24.5402 129.01 41.6702 136.75 55.7902 136.75C66.0402 136.75 73.4602 133.56 73.4602 125.45C73.4602 116.26 65.6802 111.26 49.9602 108.08L38.4802 105.61C20.1202 101.9 2.80023 91.77 2.80023 69.36C2.80023 46.95 22.7602 34.03 46.7802 34.03C69.0402 34.03 86.8702 42.51 96.7702 56.64L79.6302 75.9C71.8602 63.53 58.0902 56.83 44.4802 56.83C35.4802 56.83 28.9502 60.71 28.9502 67.6C28.9502 76.26 36.5402 81.44 48.9002 84.25L62.3302 87.43C84.4002 92.55 99.4202 103.57 99.4202 124.75C99.4202 147.36 80.3502 158.75 54.7402 158.75C31.9502 158.75 10.9402 152.13 -0.00976562 134.82L0.000234375 134.8Z" fill="black"/><path d="M79.4004 180.57L92.3004 163.08C94.9504 167.32 98.8304 170.14 103.78 170.14C109.09 170.14 111.9 167.49 111.9 160.43V70.88H137.15V160.24C137.15 177.55 126.91 192.03 107.31 192.03C92.8304 192.03 84.1704 185.67 79.4004 180.55V180.57Z" fill="black"/><path d="M138.72 46.67C138.72 38.8276 132.363 32.47 124.52 32.47C116.678 32.47 110.32 38.8276 110.32 46.67C110.32 54.5124 116.678 60.87 124.52 60.87C132.363 60.87 138.72 54.5124 138.72 46.67Z" fill="black"/><path d="M148.73 114.16C148.73 87.5 165.51 69.12 190.94 69.12C218.49 69.12 232.27 87.5 232.27 110.1C232.27 113.81 231.91 118.74 231.39 120.7H172.4C173.98 132.88 182.11 138.7 193.41 138.7C205.59 138.7 212.13 133.41 215.31 125.99L230.67 141.35C224.14 150.71 212.48 159.2 193.05 159.2C165.51 159.2 148.73 140.84 148.73 114.16ZM172.4 106.21H209.49C208.6 94.73 202.41 88.55 191.11 88.55C179.81 88.55 173.64 94.56 172.4 106.21Z" fill="black"/><path d="M245.14 157.12V35.62H270.39V85.76L269.15 108.37L285.05 89.3L303.24 70.58H333.08L299.17 105.19L332.91 157.12H304.12L282.22 120.21L270.38 132.58V157.13H245.13L245.14 157.12Z" fill="black"/><path d="M342.55 157.43V35.94H367.8V86.08L366.56 108.69L382.46 89.62L400.65 70.9H430.49L396.58 105.51L430.32 157.44H401.53L379.63 120.53L367.79 132.9V157.45H342.54L342.55 157.43Z" fill="black"/><path d="M651.45 157.43V35.94H694.65C721.86 35.94 742.69 48.48 742.69 78.32C742.69 108.16 722.2 123.17 694.65 123.17H676.7V157.44H651.45V157.43ZM676.7 58.36V100.75H693.78C706.85 100.75 716.21 95.16 716.21 78.72C716.21 62.28 706.85 58.36 693.78 58.36H676.7Z" fill="black"/><path d="M749.87 131.29V70.89H775.12V122.46C775.12 133.06 777.95 139.6 789.6 139.6C801.25 139.6 805.33 132.88 805.33 118.75V70.89H830.58V157.43H805.33V133.23C802.32 147.01 794.03 159.2 776.54 159.2C760.12 159.2 749.86 149.13 749.86 131.29H749.87Z" fill="black"/><path d="M843.47 157.43V70.89H868.72V95.97C871.55 81.85 879.85 69.12 897.68 69.12C914.12 69.12 924.18 79.19 924.18 97.03V157.43H898.91V105.86C898.91 95.26 896.09 88.73 884.62 88.73C873.15 88.73 868.72 95.43 868.72 109.57V157.43H843.47Z" fill="black"/><path d="M937.75 157.43V35.94H963V86.08L961.76 108.69L977.66 89.62L995.85 70.9H1025.69L991.78 105.51L1025.52 157.44H996.73L974.83 120.53L962.99 132.9V157.45H937.74L937.75 157.43Z" fill="black"/><path d="M1032.89 70.89V61.71L1058.14 35.93V70.89H1082.16V90.15H1058.14V127.24C1058.14 134.3 1061.68 136.77 1066.62 136.77C1072.08 136.77 1076.86 132.36 1079.5 127.58L1086.75 148.24C1083.04 153.01 1074.21 159.2 1060.97 159.2C1041.89 159.2 1032.89 147.9 1032.89 131.82V90.15" fill="black"/></g><defs><clipPath id="clip0_39_110"><rect width="1086.76" height="192.05" fill="white"/></clipPath></defs></svg>